<svg width="24" height="38" viewBox="0 0 24 38" fill="none" xmlns="http://www.w3.org/2000/svg">
<path d="M22.9217 16.5627L4.92095 0.727098C4.30901 0.192746 3.52143 -0.0638382 2.73067 0.0135326C1.93991 0.0909034 1.21041 0.495924 0.701929 1.1399C0.193449 1.78388 -0.0525753 2.61433 0.0177326 3.44939C0.0880405 4.28446 0.46895 5.05608 1.07705 5.59529L16.312 18.9969L1.07705 32.3986C0.466607 32.9371 0.083592 33.7093 0.0121412 34.5457C-0.0593095 35.3821 0.186647 36.2142 0.695982 36.8592C1.20532 37.5043 1.93637 37.9096 2.72856 37.986C3.52075 38.0624 4.30929 37.8038 4.92095 37.2668L22.9217 21.4309C23.2592 21.1333 23.5307 20.761 23.717 20.3404C23.9033 19.9198 23.9999 19.4611 23.9999 18.9968C23.9999 18.5325 23.9033 18.0739 23.717 17.6533C23.5307 17.2327 23.2592 16.8604 22.9217 16.5627Z" fill="black"/>
</svg>
