<svg width="24" height="39" viewBox="0 0 24 39" fill="none" xmlns="http://www.w3.org/2000/svg">
<path d="M7.68785 19.3371L22.9228 5.93544C23.5309 5.39623 23.9119 4.62461 23.9822 3.78954C24.0525 2.95448 23.8065 2.12403 23.298 1.48005C22.7895 0.836073 22.06 0.431052 21.2692 0.353682C20.4785 0.276311 19.6909 0.532895 19.0789 1.06725L1.0782 16.9029C0.74067 17.2006 0.469168 17.5729 0.282865 17.9935C0.0965611 18.4141 0 18.8728 0 19.3371C0 19.8014 0.0965611 20.26 0.282865 20.6806C0.469168 21.1012 0.74067 21.4735 1.0782 21.7712L19.0789 37.6068C19.6906 38.1438 20.4791 38.4024 21.2713 38.326C22.0635 38.2495 22.7946 37.8443 23.3039 37.1992C23.8133 36.5542 24.0592 35.722 23.9878 34.8857C23.9163 34.0493 23.5333 33.2771 22.9228 32.7386L7.68785 19.3371Z" fill="black"/>
</svg>
