<svg width="28" height="28" viewBox="0 0 28 28" fill="none" xmlns="http://www.w3.org/2000/svg">
<path fill-rule="evenodd" clip-rule="evenodd" d="M14 0C6.26875 0 0 6.425 0 14.3563C0 20.7 4.0125 26.075 9.575 27.975C10.275 28.1063 10.5312 27.6625 10.5312 27.2812C10.5312 26.9375 10.5188 26.0375 10.5125 24.8375C6.61875 25.7062 5.79375 22.9125 5.79375 22.9125C5.15625 21.2563 4.2375 20.8125 4.2375 20.8125C2.96875 19.9188 4.33125 19.9375 4.33125 19.9375C5.7375 20.0375 6.475 21.4188 6.475 21.4188C7.725 23.6125 9.75 22.9812 10.55 22.6125C10.675 21.6875 11.0375 21.05 11.4375 20.6938C8.33125 20.3313 5.0625 19.1 5.0625 13.6C5.0625 12.0312 5.60625 10.75 6.5 9.75C6.35625 9.3875 5.875 7.925 6.6375 5.95C6.6375 5.95 7.8125 5.5625 10.4875 7.41875C11.6062 7.1 12.8 6.94375 13.9937 6.9375C15.1812 6.94375 16.3813 7.1 17.5 7.41875C20.175 5.5625 21.3438 5.95 21.3438 5.95C22.1063 7.925 21.625 9.3875 21.4813 9.75C22.375 10.7563 22.9188 12.0375 22.9188 13.6C22.9188 19.1125 19.6437 20.325 16.525 20.6812C17.025 21.125 17.475 22 17.475 23.3375C17.475 25.2563 17.4562 26.8062 17.4562 27.275C17.4562 27.6562 17.7063 28.1062 18.4188 27.9625C23.9938 26.0688 28 20.6938 28 14.3563C28 6.425 21.7313 0 14 0Z" fill="white"/>
</svg>
